<?xml version="1.0" encoding="UTF-8"?>
<svg id="_레이어_2" data-name="레이어 2" xmlns="http://www.w3.org/2000/svg" viewBox="0 0 84.32 91.31">
  <defs>
    <style>
      .cls-1 {
        fill: #fff;
      }

      .cls-2 {
        fill: #ffab5f;
      }

      .cls-3 {
        fill: #67b8ef;
      }

      .cls-4 {
        fill: #1e1e1e;
      }
    </style>
  </defs>
  <path class="cls-3" d="m68.34,46.21c0,14.54-11.79,26.33-26.33,26.33s-26.33-11.79-26.33-26.33,11.79-26.33,26.33-26.33,26.33,11.79,26.33,26.33Z"/>
  <path class="cls-4" d="m48.6,86.92c-.55,0-1-.45-1-1s.45-1,1-1c22.04,0,26.59-16.11,26.63-16.27.14-.53.69-.85,1.22-.71.53.14.85.69.71,1.22-.05.18-5.01,17.76-28.57,17.76Z"/>
  <g>
    <path class="cls-1" d="m53.18,85.71c0,2.54-1.51,4.6-3.38,4.6h-6.77c-1.87,0-3.38-2.06-3.38-4.6h0c0-2.54,1.51-4.6,3.38-4.6h6.77c1.87,0,3.38,2.06,3.38,4.6h0Z"/>
    <path class="cls-4" d="m49.79,91.31h-6.77c-2.42,0-4.38-2.51-4.38-5.6s1.97-5.6,4.38-5.6h6.77c2.42,0,4.38,2.51,4.38,5.6s-1.97,5.6-4.38,5.6Zm-6.77-9.2c-1.29,0-2.38,1.65-2.38,3.6s1.09,3.6,2.38,3.6h6.77c1.29,0,2.38-1.65,2.38-3.6s-1.09-3.6-2.38-3.6h-6.77Z"/>
  </g>
  <g>
    <path class="cls-1" d="m76.29,65.18l-6.51-4.4c3.71-5.5,5.68-11.94,5.68-18.62,0-18.36-14.94-33.3-33.3-33.3S8.86,23.8,8.86,42.16c0,5.76,1.49,11.43,4.31,16.4l-6.83,3.87c-3.49-6.15-5.33-13.16-5.33-20.27C1,19.46,19.46,1,42.16,1s41.16,18.46,41.16,41.16c0,8.25-2.43,16.2-7.03,23.02Z"/>
    <path class="cls-4" d="m76.29,66.18c-.2,0-.39-.06-.56-.17l-6.51-4.4c-.46-.31-.58-.93-.27-1.39,3.61-5.34,5.51-11.59,5.51-18.06,0-17.81-14.49-32.3-32.3-32.3S9.86,24.35,9.86,42.16c0,5.58,1.44,11.09,4.18,15.91.27.48.1,1.09-.38,1.36l-6.83,3.87c-.48.27-1.09.1-1.36-.38C1.89,56.63,0,49.45,0,42.16,0,18.91,18.91,0,42.16,0s42.16,18.91,42.16,42.16c0,8.45-2.49,16.6-7.2,23.58-.15.22-.38.37-.64.42-.06.01-.13.02-.19.02Zm-5.13-5.67l4.85,3.28c4.13-6.46,6.31-13.91,6.31-21.62,0-22.14-18.02-40.16-40.16-40.16S2,20.02,2,42.16c0,6.61,1.63,13.12,4.72,18.91l5.1-2.89c-2.59-4.91-3.96-10.42-3.96-16.02C7.86,23.24,23.25,7.86,42.16,7.86s34.3,15.39,34.3,34.3c0,6.54-1.83,12.86-5.31,18.34Z"/>
  </g>
  <g>
    <path class="cls-2" d="m82.93,64.85c0,3.01-3.46,5.46-7.74,5.46h0c-4.27,0-7.73-2.44-7.73-5.46v-15.61c0-3.01,3.46-5.45,7.73-5.45h0c4.27,0,7.74,2.44,7.74,5.45v15.61Z"/>
    <path class="cls-4" d="m75.19,71.3c-4.82,0-8.73-2.9-8.73-6.46v-15.61c0-3.56,3.92-6.45,8.73-6.45s8.74,2.89,8.74,6.45v15.61c0,3.56-3.92,6.46-8.74,6.46Zm0-26.52c-3.65,0-6.73,2.04-6.73,4.45v15.61c0,2.42,3.08,4.46,6.73,4.46s6.74-2.04,6.74-4.46v-15.61c0-2.41-3.08-4.45-6.74-4.45Z"/>
  </g>
  <g>
    <path class="cls-2" d="m17.06,64.96c0,3.01-3.47,5.45-7.74,5.45h0c-4.27,0-7.74-2.44-7.74-5.45v-15.61c0-3.01,3.46-5.46,7.74-5.46h0c4.27,0,7.74,2.44,7.74,5.46v15.61Z"/>
    <path class="cls-4" d="m9.32,71.41c-4.82,0-8.74-2.9-8.74-6.45v-15.61c0-3.56,3.92-6.46,8.74-6.46s8.74,2.9,8.74,6.46v15.61c0,3.56-3.92,6.45-8.74,6.45Zm0-26.52c-3.65,0-6.74,2.04-6.74,4.46v15.61c0,2.41,3.08,4.45,6.74,4.45s6.74-2.04,6.74-4.45v-15.61c0-2.42-3.08-4.46-6.74-4.46Z"/>
  </g>
  <path class="cls-1" d="m33.2,41.87c.05-1.6.18-2.88.41-3.84.22-.96.59-1.83,1.11-2.59.71-1.16,1.7-2.07,2.96-2.74,1.26-.67,2.66-1,4.22-1,2.44,0,4.41.74,5.9,2.22,1.49,1.48,2.24,3.44,2.24,5.88,0,.84-.12,1.67-.37,2.5s-.62,1.56-1.11,2.2c-.17.32-.39.65-.67.98-.27.33-.54.63-.81.91l-.88.89-.45.52c-.44.44-.79.84-1.05,1.2-.26.36-.45.78-.57,1.28-.15.49-.24,1.11-.28,1.85-.04.74-.05,1.71-.05,2.92h-4.18c0-1.63.04-2.92.11-3.88.07-.96.25-1.8.52-2.51.27-.71.68-1.41,1.22-2.07.54-.67,1.32-1.52,2.33-2.55.66-.74,1.14-1.42,1.42-2.03.28-.62.42-1.29.42-2.03,0-1.33-.34-2.35-1.02-3.05-.68-.7-1.61-1.05-2.79-1.05-1.43,0-2.51.45-3.25,1.35-.74.9-1.18,2.46-1.33,4.68h-4.03Zm10.95,17.12v4.96h-4.95v-4.96h4.95Z"/>
</svg>