<?xml version="1.0" encoding="UTF-8"?>
<svg id="_레이어_2" data-name="레이어 2" xmlns="http://www.w3.org/2000/svg" viewBox="0 0 103.07 94.63">
  <defs>
    <style>
      .cls-1 {
        fill: #fff;
      }

      .cls-2 {
        fill: #f7931e;
      }

      .cls-3 {
        fill: #ff5c5c;
      }

      .cls-4 {
        fill: #0f3654;
      }
    </style>
  </defs>
  <g id="_레이어_2-2" data-name="레이어 2">
    <g>
      <path class="cls-1" d="m76.89,90.59h-9.88v-8h9.88c2.26,0,3.44-1.2,3.5-3.55v-12.01h8v12.06c0,4.62-3.07,11.5-11.5,11.5Z"/>
      <g>
        <path class="cls-1" d="m20.83,39.51c0-16.93,13.77-30.7,30.7-30.7s30.7,13.77,30.7,30.7v11.99h8.81v-11.99C91.04,17.72,73.32,0,51.53,0S12.03,17.72,12.03,39.51v11.99h8.81v-11.99Z"/>
        <g>
          <path class="cls-2" d="m19.88,34.69h-3.92c-8.81,0-15.96,7.14-15.96,15.96v10.02c0,8.81,7.14,15.96,15.96,15.96h3.92c1.64,0,2.97-1.33,2.97-2.97v-36c0-1.64-1.33-2.97-2.97-2.97Z"/>
          <path class="cls-2" d="m83.19,34.69h3.92c8.81,0,15.96,7.14,15.96,15.96v10.02c0,8.81-7.15,15.96-15.96,15.96h-3.92c-1.64,0-2.97-1.33-2.97-2.97v-36c0-1.64,1.33-2.97,2.97-2.97Z"/>
        </g>
      </g>
      <path class="cls-3" d="m64.6,40.03c-1.37-.85-2.63-1.09-3.8-1.19-5.04-.48-8.61,4.84-9.23,7.01-.01-.01-.03-.03-.04-.05-.29-1.74-4.05-7.53-9.06-7.17-1.17.09-2.44.29-3.83,1.11-5.78,3.43-6.45,13.95,3.56,22.74,1.57,1.37,3.4,2.71,5.51,3.96,1.2.72,3.53,2,3.59,1.97,0,0,.09-.03.23-.09.63-.3,2.4-1.23,3.41-1.79,2.14-1.21,3.99-2.5,5.59-3.84,10.2-8.55,9.77-19.09,4.06-22.65Z"/>
      <rect class="cls-4" x="49.2" y="78.3" width="24.33" height="16.33" rx="6" ry="6"/>
    </g>
  </g>
</svg>