<?xml version="1.0" encoding="UTF-8"?>
<svg id="_레이어_2" data-name="레이어 2" xmlns="http://www.w3.org/2000/svg" xmlns:xlink="http://www.w3.org/1999/xlink" viewBox="0 0 131.05 118.89">
  <defs>
    <style>
      .cls-1 {
        fill: url(#_새_그라디언트_견본_1);
      }

      .cls-2 {
        fill: #515151;
      }
    </style>
    <linearGradient id="_새_그라디언트_견본_1" data-name="새 그라디언트 견본 1" x1="67.38" y1="112.47" x2="89.7" y2="112.47" gradientUnits="userSpaceOnUse">
      <stop offset="0" stop-color="#f25838"/>
      <stop offset=".21" stop-color="#ec4a2f"/>
      <stop offset=".61" stop-color="#de2819"/>
      <stop offset="1" stop-color="#cd0000"/>
    </linearGradient>
  </defs>
  <g id="_레이어_1-2" data-name="레이어 1">
    <g>
      <path class="cls-2" d="m87.78,116.23l-.88-7.95c3.89-.43,6.87-1.53,8.23-2.33,5.34-3.17,8.77-9.77,9.4-18.1l7.98.6c-.83,10.98-5.68,19.87-13.31,24.39-2.79,1.64-7.05,2.91-11.42,3.4Z"/>
      <path class="cls-2" d="m106.68,45.13c-2.69-21.51-20.21-37.13-41.64-37.13S26.18,23.61,23.49,45.12l-7.94-.99C18.75,18.56,39.56,0,65.03,0s46.38,18.56,49.58,44.13l-7.94.99Z"/>
      <path class="cls-2" d="m104.01,92.14h-.99c-.13,0-.26,0-.39-.02-3.17-.31-5.55-3.25-5.55-6.84v-40.69c0-3.59,2.39-6.53,5.55-6.84.13-.01.26-.02.39-.02h.99c13.14,0,24.36,9.21,26.68,21.89.76,4.15.08,9.92,0,10.57-.01.11-.03.22-.05.33-2.62,12.53-13.81,21.62-26.63,21.62Zm1.07-46.37v38.34c8.54-.48,15.86-6.65,17.69-15.06.18-1.55.49-5.57.05-7.99-1.56-8.54-8.93-14.82-17.74-15.3Z"/>
      <path class="cls-2" d="m28.06,92.14h-1c-12.81,0-24.01-9.09-26.63-21.62-.02-.11-.04-.22-.05-.33-.14-1.17-.81-7.17.05-10.77,3.03-12.76,13.99-21.68,26.63-21.68h1c.13,0,.26,0,.39.02,3.16.31,5.55,3.25,5.55,6.84v40.69c0,3.59-2.38,6.53-5.55,6.84-.13.01-.26.02-.39.02Zm-19.76-23.09c1.83,8.41,9.16,14.59,17.69,15.06v-38.34c-8.47.49-15.7,6.72-17.78,15.5-.38,1.61-.18,5.45.09,7.78Z"/>
      <path class="cls-1" d="m89.7,112.47c0,3.54-2.87,6.42-6.41,6.42h-9.49c-3.55,0-6.41-2.87-6.41-6.42h0c0-3.54,2.86-6.41,6.41-6.41h9.49c3.54,0,6.41,2.87,6.41,6.41h0Z"/>
    </g>
  </g>
</svg>