<svg xmlns="http://www.w3.org/2000/svg" xmlns:xlink="http://www.w3.org/1999/xlink" viewBox="0 0 53.12 79.69"><defs><style>.cls-1{opacity:0.3;fill:url(#무제_그라디언트_17);}.cls-2{fill:url(#linear-gradient);}.cls-3{fill:url(#linear-gradient-2);}.cls-4{fill:url(#linear-gradient-3);}.cls-5{fill:url(#linear-gradient-4);}.cls-6{fill:url(#linear-gradient-5);}.cls-7{fill:url(#linear-gradient-6);}.cls-8{fill:url(#linear-gradient-7);}.cls-9{fill:#775f46;}.cls-10{fill:url(#linear-gradient-8);}.cls-11{fill:url(#linear-gradient-9);}.cls-12{fill:#fff;}.cls-13{fill:url(#무제_그라디언트_5);}</style><linearGradient id="무제_그라디언트_17" x1="13.96" y1="57.82" x2="26.75" y2="73.17" gradientUnits="userSpaceOnUse"><stop offset="0" stop-color="#f7d4b6"/><stop offset="1"/></linearGradient><linearGradient id="linear-gradient" x1="36.26" y1="45.5" x2="32.37" y2="63.23" gradientUnits="userSpaceOnUse"><stop offset="0.01" stop-color="#bba693"/><stop offset="0.07" stop-color="#ccb9a4"/><stop offset="0.18" stop-color="#e2d1b9"/><stop offset="0.28" stop-color="#efdfc6"/><stop offset="0.37" stop-color="#f4e4ca"/><stop offset="0.46" stop-color="#f0e0c6"/><stop offset="0.56" stop-color="#e5d4bb"/><stop offset="0.65" stop-color="#d2bfa9"/><stop offset="0.74" stop-color="#bba693"/><stop offset="1" stop-color="#c7b09b"/></linearGradient><linearGradient id="linear-gradient-2" x1="27.24" y1="40.48" x2="53.12" y2="40.48" gradientUnits="userSpaceOnUse"><stop offset="0" stop-color="#f0f0f0"/><stop offset="1" stop-color="#fff"/></linearGradient><linearGradient id="linear-gradient-3" x1="39.64" y1="34.58" x2="42.53" y2="56.12" gradientUnits="userSpaceOnUse"><stop offset="0" stop-color="#87cad0"/><stop offset="0.32" stop-color="#7fbfc5"/><stop offset="0.88" stop-color="#6ba3a8"/><stop offset="0.89" stop-color="#6aa2a7"/></linearGradient><linearGradient id="linear-gradient-4" x1="43.12" y1="67.48" x2="40.45" y2="72.21" gradientUnits="userSpaceOnUse"><stop offset="0.01" stop-color="#c7b3a2"/><stop offset="0.01" stop-color="#ccb9a7"/><stop offset="0.06" stop-color="#e2d1ba"/><stop offset="0.1" stop-color="#efdfc6"/><stop offset="0.13" stop-color="#f4e4ca"/><stop offset="0.14" stop-color="#f2e1c8"/><stop offset="0.23" stop-color="#d4c1ab"/><stop offset="0.3" stop-color="#c2ad99"/><stop offset="0.35" stop-color="#bba693"/><stop offset="0.56" stop-color="#f4e4ca"/><stop offset="0.72" stop-color="#bba693"/></linearGradient><linearGradient id="linear-gradient-5" x1="39.84" y1="69.83" x2="43.89" y2="69.83" xlink:href="#linear-gradient-2"/><linearGradient id="linear-gradient-6" x1="-114.11" y1="103.08" x2="-112.2" y2="104.29" gradientTransform="translate(153.91 -95.15)" gradientUnits="userSpaceOnUse"><stop offset="0" stop-color="#525252"/><stop offset="1" stop-color="#212121"/></linearGradient><linearGradient id="linear-gradient-7" x1="108.78" y1="-90.95" x2="109.2" y2="-90.92" gradientTransform="translate(-53.5 -98.66) rotate(90)" xlink:href="#linear-gradient-6"/><linearGradient id="linear-gradient-8" x1="25.71" y1="22.16" x2="24.15" y2="25.63" xlink:href="#linear-gradient"/><linearGradient id="linear-gradient-9" x1="25.71" y1="28.15" x2="24.15" y2="31.62" xlink:href="#linear-gradient"/><linearGradient id="무제_그라디언트_5" x1="20.76" y1="15.2" x2="26.55" y2="40.18" gradientTransform="translate(29.47 -8.7) rotate(64.02)" gradientUnits="userSpaceOnUse"><stop offset="0" stop-color="#ed9297"/><stop offset="0.28" stop-color="#e98c91"/><stop offset="0.66" stop-color="#dc7b7f"/><stop offset="0.8" stop-color="#d77477"/></linearGradient></defs><title>cus4</title><g id="Layer_2" data-name="Layer 2"><g id="Layer_1-2" data-name="Layer 1"><path class="cls-1" d="M27,79.3,1.12,65.72s-3.11-2.58,1-5l22.91-13Z"/><path class="cls-2" d="M49.71,65.17,31,79.41c-4.31,1.25-8-2-8-3.63V15.15A5.1,5.1,0,0,1,26,10.79L46.26.26c3.23-1,6.51,1.19,6.51,2.81l-.13,58.14C52.64,62.82,52,64.05,49.71,65.17Z"/><path class="cls-3" d="M50.18,67.81l-19,11.62a2.83,2.83,0,0,1-3.94-2.61V16.18a5.1,5.1,0,0,1,2.93-4.36L49.49,1.47c2.14-.77,3.63,1.24,3.63,2.85V63.84C53.12,65.45,52.47,66.68,50.18,67.81Z"/><polygon class="cls-4" points="29.13 17.48 29.13 74.25 51.56 60.83 51.56 5.48 29.13 17.48"/><path class="cls-5" d="M39.21,70.06v2.33a.6.6,0,0,0,.69.53L44,70.38a1.36,1.36,0,0,0,.47-1.11V67.16a.65.65,0,0,0-.9-.32l-3.8,2.32A1.27,1.27,0,0,0,39.21,70.06Z"/><path class="cls-6" d="M39.84,70.12v1.61a.41.41,0,0,0,.47.37l3.24-2a1,1,0,0,0,.33-.77V67.84a.45.45,0,0,0-.62-.22L40.2,69.49A.89.89,0,0,0,39.84,70.12Z"/><rect class="cls-7" x="38.37" y="8.34" width="4.97" height="0.52" rx="0.26" transform="translate(0.72 20.11) rotate(-27.89)"/><ellipse class="cls-8" cx="37.43" cy="10.35" rx="0.43" ry="0.4" transform="translate(15.43 42.35) rotate(-70.96)"/><ellipse class="cls-9" cx="25.2" cy="23.8" rx="0.93" ry="1.69"/><ellipse class="cls-10" cx="24.98" cy="23.8" rx="0.93" ry="1.69"/><ellipse class="cls-9" cx="25.2" cy="29.8" rx="0.93" ry="1.69"/><ellipse class="cls-11" cx="24.98" cy="29.8" rx="0.93" ry="1.69"/><ellipse class="cls-12" cx="20.36" cy="18.56" rx="19.59" ry="13.03" transform="translate(-5.15 28.98) rotate(-64.57)"/><ellipse class="cls-13" cx="21.69" cy="19.22" rx="19.58" ry="12.52" transform="translate(-5.09 30.3) rotate(-64.02)"/><path class="cls-12" d="M17.1,28.05A5.74,5.74,0,0,1,15.16,25c-.85-3-.19-7.43,1.65-10.94,1.63-3.1,4-5.3,6.45-5.9a4.51,4.51,0,0,1,4,.73c1.66,1.26,2.49,3.76,2.27,6.87l-.71-.06c.2-2.82-.51-5.07-2-6.17a3.93,3.93,0,0,0-3.43-.61c-2.22.55-4.45,2.62-6,5.54-1.72,3.27-2.38,7.51-1.6,10.3A5,5,0,0,0,17.5,27.4Z"/><ellipse class="cls-12" cx="29.12" cy="16.12" rx="4.21" ry="2.05" transform="matrix(0, -1, 1, 0, 12.87, 45.17)"/><ellipse class="cls-12" cx="16.97" cy="26.18" rx="4.39" ry="2.13" transform="translate(-9.29 43.03) rotate(-89.74)"/><polygon class="cls-12" points="20.47 31.01 18.43 28.97 18.91 28.39 20.52 30 25.86 25.61 26.28 26.24 20.47 31.01"/><ellipse class="cls-12" cx="26.01" cy="25.93" rx="1.33" ry="1.14" transform="translate(0.03 51.89) rotate(-89.89)"/><path class="cls-12" d="M36.82,33.12c.5-1,1.18-2.64,2-2.93,1.14-.44,1.42,1,1.74,2.39.29,1.22.56,2.61-.19,3.33-.58.55-1.65.08-1.57,1.65a10.2,10.2,0,0,0,2.56,7l2.12-1.48s1.68.81,1.24,5.93l-3.63-.68s-2.47-1.88-4.5-12.79C36.56,35.54,36,34.73,36.82,33.12Z"/></g></g></svg>