<svg xmlns="http://www.w3.org/2000/svg" viewBox="0 0 28.06 27.51"><title>login</title><g id="Layer_2" data-name="Layer 2"><g id="_1" data-name="1"><g id="_396_Account_Avatar_User" data-name="396, Account, Avatar, User"><path d="M27.7,27.51h0L.35,27A.36.36,0,0,1,0,26.65a14,14,0,0,1,28.06.47v0A.36.36,0,0,1,27.7,27.51ZM.73,26.3l26.61.48A13.31,13.31,0,0,0,.73,26.3Z"/><path d="M14.27,13.59a6.8,6.8,0,1,1,6.92-6.67A6.81,6.81,0,0,1,14.27,13.59ZM14.5.72a6.08,6.08,0,1,0,6,6.18A6.08,6.08,0,0,0,14.5.72Z"/></g></g></g></svg>