<?xml version="1.0" encoding="UTF-8"?>
<svg id="_레이어_2" data-name="레이어 2" xmlns="http://www.w3.org/2000/svg" viewBox="0 0 288.3 75">
  <defs>
    <style>
      .cls-1 {
        fill: #f7931e;
      }

      .cls-2 {
        fill: #ff931e;
      }
    </style>
  </defs>
  <g id="_레이어_1-2" data-name="레이어 1">
    <g>
      <path class="cls-1" d="m27.96,65.35H6.96c-.96,0-1.86-.18-2.7-.54-.84-.36-1.57-.85-2.19-1.47s-1.12-1.35-1.5-2.19c-.38-.84-.57-1.76-.57-2.76V18.07h8.28v38.76c0,.32.1.58.3.78.2.2.46.3.78.3h18.6v7.44Z"/>
      <path class="cls-1" d="m68.64,65.35h-28.56c-.96,0-1.86-.18-2.7-.54-.84-.36-1.57-.85-2.19-1.47s-1.12-1.35-1.5-2.19c-.38-.84-.57-1.76-.57-2.76V25.03c0-1,.19-1.92.57-2.76.38-.84.88-1.57,1.5-2.19s1.35-1.11,2.19-1.47c.84-.36,1.74-.54,2.7-.54h27.36v7.44h-24.96c-.32,0-.58.1-.78.3s-.3.46-.3.78v10.08h24.54v7.44h-24.54v12.72c0,.32.1.58.3.78.2.2.46.3.78.3h26.16v7.44Z"/>
      <path class="cls-1" d="m116.04,58.39c0,1-.19,1.92-.57,2.76-.38.84-.88,1.57-1.5,2.19-.62.62-1.35,1.11-2.19,1.47-.84.36-1.74.54-2.7.54h-27c-.96,0-1.86-.18-2.7-.54-.84-.36-1.57-.85-2.19-1.47s-1.12-1.35-1.5-2.19c-.38-.84-.57-1.76-.57-2.76V25.03c0-1,.19-1.92.57-2.76.38-.84.88-1.57,1.5-2.19s1.35-1.11,2.19-1.47c.84-.36,1.74-.54,2.7-.54h27c.96,0,1.86.18,2.7.54.84.36,1.57.85,2.19,1.47.62.62,1.12,1.35,1.5,2.19.38.84.57,1.76.57,2.76v33.36Zm-9.36-.48c.32,0,.58-.1.78-.3s.3-.46.3-.78v-30.24c0-.32-.1-.58-.3-.78-.2-.2-.46-.3-.78-.3h-22.2c-.32,0-.58.1-.78.3s-.3.46-.3.78v30.24c0,.32.1.58.3.78.2.2.46.3.78.3h22.2Z"/>
      <path d="m159.06,42.19c0,1-.19,1.92-.57,2.76-.38.84-.88,1.57-1.5,2.19s-1.35,1.11-2.19,1.47c-.84.36-1.74.54-2.7.54h-20.34v16.2h-8.28V18.07h28.62c.96,0,1.86.18,2.7.54.84.36,1.57.85,2.19,1.47.62.62,1.12,1.35,1.5,2.19.38.84.57,1.76.57,2.76v17.16Zm-9.36-.48c.32,0,.58-.1.78-.3s.3-.46.3-.78v-14.04c0-.32-.1-.58-.3-.78-.2-.2-.46-.3-.78-.3h-17.94v16.2h17.94Z"/>
      <path d="m206.58,58.39c0,1-.19,1.92-.57,2.76-.38.84-.88,1.57-1.5,2.19-.62.62-1.35,1.11-2.19,1.47-.84.36-1.74.54-2.7.54h-27c-.96,0-1.86-.18-2.7-.54-.84-.36-1.57-.85-2.19-1.47s-1.12-1.35-1.5-2.19c-.38-.84-.57-1.76-.57-2.76V25.03c0-1,.19-1.92.57-2.76.38-.84.88-1.57,1.5-2.19s1.35-1.11,2.19-1.47c.84-.36,1.74-.54,2.7-.54h27c.96,0,1.86.18,2.7.54.84.36,1.57.85,2.19,1.47.62.62,1.12,1.35,1.5,2.19.38.84.57,1.76.57,2.76v33.36Zm-9.36-.48c.32,0,.58-.1.78-.3s.3-.46.3-.78v-30.24c0-.32-.1-.58-.3-.78-.2-.2-.46-.3-.78-.3h-22.2c-.32,0-.58.1-.78.3s-.3.46-.3.78v30.24c0,.32.1.58.3.78.2.2.46.3.78.3h22.2Z"/>
      <path d="m241.86,65.35h-21c-.96,0-1.86-.18-2.7-.54-.84-.36-1.57-.85-2.19-1.47s-1.12-1.35-1.5-2.19c-.38-.84-.57-1.76-.57-2.76V18.07h8.28v38.76c0,.32.1.58.3.78.2.2.46.3.78.3h18.6v7.44Z"/>
      <path d="m288.3,55.51c0,1.4-.25,2.7-.75,3.9-.5,1.2-1.19,2.24-2.07,3.12-.88.88-1.92,1.57-3.12,2.07-1.2.5-2.5.75-3.9.75h-31.08V18.07h31.08c1.4,0,2.7.25,3.9.75,1.2.5,2.24,1.19,3.12,2.07.88.88,1.57,1.92,2.07,3.12.5,1.2.75,2.5.75,3.9v27.6Zm-10.56,2.4c.64,0,1.18-.22,1.62-.66.44-.44.66-.98.66-1.62v-27.84c0-.64-.22-1.18-.66-1.62-.44-.44-.98-.66-1.62-.66h-22.08v32.4h22.08Z"/>
    </g>
    <g>
      <path class="cls-2" d="m93.57,0v25.51h5V0h-5Z"/>
      <path class="cls-2" d="m93.57,75h5v-16.14l-5,.02v16.12Z"/>
    </g>
  </g>
</svg>