<?xml version="1.0" encoding="UTF-8"?>
<svg id="_레이어_2" data-name="레이어 2" xmlns="http://www.w3.org/2000/svg" viewBox="0 0 87.95 87.89">
  <defs>
    <style>
      .cls-1 {
        fill: #fff;
      }

      .cls-2 {
        fill: #ffd42e;
      }
    </style>
  </defs>
  <g>
    <path class="cls-1" d="m86.95,69.86l-12.21-6.97-5.1-5.5s-4.47-5.54-12.34-4.83l-16.77,2.63-17.44,1.24-12.07-8.03s-3.49-3.08-7.24-2.15c0,0-3.4,1.03-2.68,4.61l21.73,26.09s2.95,4.04,9.39,2.8l30.58-.62,12.61,7.77,11.54-17.04Z"/>
    <path d="m75.41,87.89c-.18,0-.36-.05-.52-.15l-12.36-7.62-30.2.61c-.85.16-1.69.24-2.5.24-5.23,0-7.7-3.31-7.81-3.45L.33,51.49c-.11-.13-.18-.28-.21-.44-.71-3.53,1.9-5.31,3.37-5.76,3.96-.99,7.63,1.87,8.14,2.3l11.74,7.8,17.1-1.22,16.68-2.62c.56-.05,1.06-.08,1.55-.08,7.39,0,11.55,5.05,11.73,5.27l4.95,5.33,12.07,6.9c.24.14.41.37.48.64.06.27.01.56-.15.79l-11.54,17.04c-.19.28-.51.44-.83.44Zm-12.61-9.77c.19,0,.37.05.52.15l11.79,7.27,10.39-15.35-11.27-6.44c-.09-.05-.17-.11-.24-.19l-5.1-5.5c-.09-.1-4.31-5.18-11.52-4.51l-16.7,2.62-17.52,1.25c-.22.01-.44-.04-.62-.17l-12.07-8.03s-.07-.05-.11-.08c-.02-.02-2.4-2.07-5.12-2.07-.42,0-.83.05-1.22.15-.2.06-2.32.81-1.98,3.2l21.56,25.88c.12.15,2.05,2.68,6.23,2.68.71,0,1.45-.07,2.2-.22.06-.01.11-.02.17-.02l30.58-.62h.02Z"/>
  </g>
  <path d="m50.73,68s-.08,0-.12,0l-25.02-2.88c-.25-.03-.48-.15-.65-.35-1.35-1.6-1.86-3.21-1.5-4.8.67-2.96,4.18-4.55,4.33-4.62.51-.23,1.1,0,1.32.51.22.5,0,1.09-.51,1.32h0c-.76.34-2.83,1.6-3.2,3.24-.19.85.09,1.78.83,2.75l24.61,2.83c.55.06.94.56.88,1.11-.06.51-.49.89-.99.89Z"/>
  <g>
    <path class="cls-2" d="m62.43,8.77c-3.3-6.95-10.77-7.64-10.77-7.64-9.73-1.22-14.59,6.6-14.59,6.6,0,0-4.99-7.82-14.72-6.6,0,0-7.47.7-10.77,7.64,0,0-4.77,7.69-.41,17.03,0,0,1.91,4.91,8.23,10.94l17.5,14.93v.19s.11-.09.11-.09l.11.09v-.19s17.5-14.93,17.5-14.93c6.32-6.03,8.23-10.94,8.23-10.94,4.36-9.35-.41-17.03-.41-17.03Z"/>
    <path d="m37.12,52.86s-.08,0-.11,0c-.18.02-.37,0-.54-.09-.25-.12-.44-.33-.53-.59l-17.2-14.67c-6.45-6.15-8.43-11.13-8.51-11.34-4.37-9.37,0-17.1.46-17.87C14.21.96,21.93.16,22.26.13c.69-.09,1.42-.13,2.12-.13,6.75,0,10.98,4.03,12.68,6.06,1.67-2.04,5.83-6.06,12.57-6.06.71,0,1.43.05,2.16.14.3.03,8.01.83,11.53,8.16.46.77,4.84,8.5.44,17.93-.06.15-2.04,5.12-8.45,11.24l-17.24,14.7c-.08.26-.27.47-.53.59-.14.06-.28.09-.42.09ZM24.38,2c-.62,0-1.27.04-1.91.12-.31.03-6.99.75-9.99,7.08-.02.03-.03.07-.05.1-.18.29-4.42,7.37-.36,16.08.04.11,1.96,4.86,8.01,10.64l16.92,14.43,16.96-14.47c6.02-5.74,7.93-10.49,7.95-10.54,4.09-8.77-.15-15.84-.33-16.14-.02-.03-.04-.06-.05-.1-3.02-6.36-9.89-7.07-9.96-7.08-9.01-1.12-13.61,6.07-13.65,6.13-.18.29-.5.47-.84.47h0c-.34,0-.66-.17-.84-.46-.04-.06-4.12-6.27-11.84-6.27Z"/>
  </g>
  <path class="cls-1" d="m15.5,17.86c-.5,0-.93-.37-.99-.88-.67-5.72,2.57-8.96,2.71-9.1,3.53-4,8.83-3.32,11.13-2.4.51.21.76.79.55,1.3-.21.51-.79.76-1.3.56-.22-.09-5.41-2.08-8.94,1.92-.16.16-2.73,2.78-2.17,7.49.06.55-.33,1.05-.88,1.11-.04,0-.08,0-.12,0Z"/>
</svg>