<svg xmlns="http://www.w3.org/2000/svg" viewBox="0 0 63.41 87.51"><defs><style>.cls-1{fill:#fff;}.cls-2{fill:#ffd42e;}</style></defs><title>made</title><g id="Layer_2" data-name="Layer 2"><g id="Layer_1-2" data-name="Layer 1"><path class="cls-1" d="M25,63.25A6.76,6.76,0,1,1,31.71,70,6.76,6.76,0,0,1,25,63.25Z"/><path d="M31.71,70.53A7.28,7.28,0,1,1,39,63.25,7.29,7.29,0,0,1,31.71,70.53Zm0-13.5a6.22,6.22,0,1,0,6.22,6.22A6.23,6.23,0,0,0,31.71,57Z"/><path class="cls-2" d="M43.77,87V83.09c0-5.61-5.4-10.16-12.06-10.16h0c-6.67,0-12.07,4.55-12.07,10.16V87Z"/><path d="M43.77,87.51H19.64a.53.53,0,0,1-.53-.53V83.09c0-5.89,5.65-10.69,12.6-10.69S44.3,77.2,44.3,83.09V87A.53.53,0,0,1,43.77,87.51Zm-23.6-1.06H43.24V83.09c0-5.31-5.17-9.63-11.53-9.63s-11.54,4.32-11.54,9.63Z"/><path d="M51.84,72a6.71,6.71,0,1,1,6.7-6.71A6.72,6.72,0,0,1,51.84,72Zm0-12.36a5.65,5.65,0,1,0,5.64,5.65A5.65,5.65,0,0,0,51.84,59.61Z"/><path d="M62.88,87.51H47.25a.53.53,0,0,1,0-1.06h15.1v-3c0-4.83-4.72-8.77-10.51-8.77a12,12,0,0,0-5.92,1.52.53.53,0,0,1-.52-.92,13.05,13.05,0,0,1,6.44-1.66c6.38,0,11.57,4.41,11.57,9.83V87A.53.53,0,0,1,62.88,87.51Z"/><path d="M11.57,72a6.71,6.71,0,1,1,6.71-6.71A6.72,6.72,0,0,1,11.57,72Zm0-12.36a5.65,5.65,0,1,0,5.65,5.65A5.65,5.65,0,0,0,11.57,59.61Z"/><path d="M16.16,87.51H.53A.53.53,0,0,1,0,87V83.42C0,78,5.19,73.59,11.57,73.59A13.05,13.05,0,0,1,18,75.25a.53.53,0,1,1-.52.92,12,12,0,0,0-5.92-1.52c-5.79,0-10.51,3.94-10.51,8.77v3h15.1a.53.53,0,0,1,0,1.06Z"/><path class="cls-1" d="M25,63.25A6.76,6.76,0,1,1,31.71,70,6.76,6.76,0,0,1,25,63.25Z"/><path d="M31.71,70.53A7.28,7.28,0,1,1,39,63.25,7.29,7.29,0,0,1,31.71,70.53Zm0-13.5a6.22,6.22,0,1,0,6.22,6.22A6.23,6.23,0,0,0,31.71,57Z"/><path class="cls-2" d="M43.77,87V83.09c0-5.61-5.4-10.16-12.06-10.16h0c-6.67,0-12.07,4.55-12.07,10.16V87Z"/><path d="M43.77,87.51H19.64a.53.53,0,0,1-.53-.53V83.09c0-5.89,5.65-10.69,12.6-10.69S44.3,77.2,44.3,83.09V87A.53.53,0,0,1,43.77,87.51Zm-23.6-1.06H43.24V83.09c0-5.31-5.17-9.63-11.53-9.63s-11.54,4.32-11.54,9.63Z"/><path d="M51.84,72a6.71,6.71,0,1,1,6.7-6.71A6.72,6.72,0,0,1,51.84,72Zm0-12.36a5.65,5.65,0,1,0,5.64,5.65A5.65,5.65,0,0,0,51.84,59.61Z"/><path d="M62.88,87.51H47.25a.53.53,0,0,1,0-1.06h15.1v-3c0-4.83-4.72-8.77-10.51-8.77a12,12,0,0,0-5.92,1.52.53.53,0,0,1-.52-.92,13.05,13.05,0,0,1,6.44-1.66c6.38,0,11.57,4.41,11.57,9.83V87A.53.53,0,0,1,62.88,87.51Z"/><path d="M11.57,72a6.71,6.71,0,1,1,6.71-6.71A6.72,6.72,0,0,1,11.57,72Zm0-12.36a5.65,5.65,0,1,0,5.65,5.65A5.65,5.65,0,0,0,11.57,59.61Z"/><path d="M16.16,87.51H.53A.53.53,0,0,1,0,87V83.42C0,78,5.19,73.59,11.57,73.59A13.05,13.05,0,0,1,18,75.25a.53.53,0,1,1-.52.92,12,12,0,0,0-5.92-1.52c-5.79,0-10.51,3.94-10.51,8.77v3h15.1a.53.53,0,0,1,0,1.06Z"/><path class="cls-1" d="M43.9,23.27a12,12,0,1,0-20.47,8.49c2.47,2.46,4.34,4.08,4.34,7.57H36c0-3.45,1.78-5.07,4.25-7.49A12,12,0,0,0,43.9,23.27Z"/><path d="M36,39.86H27.77a.53.53,0,0,1-.53-.53c0-3-1.48-4.51-3.72-6.73l-.47-.47a12.53,12.53,0,1,1,17.61.09l-.25.24c-2.31,2.27-3.84,3.76-3.84,6.87A.53.53,0,0,1,36,39.86ZM28.28,38.8h7.24c.18-3.21,1.94-4.94,4.15-7.09l.25-.24a11.47,11.47,0,1,0-16.12-.09l.47.47C26.4,34,28.11,35.66,28.28,38.8Z"/><path d="M31.38,37.14H36.8a0,0,0,0,1,0,0V45.9a0,0,0,0,1,0,0H31.38A4.38,4.38,0,0,1,27,41.52v0A4.38,4.38,0,0,1,31.38,37.14Z"/><path d="M31.9,46.42A5.42,5.42,0,0,1,26.48,41V37.14a.53.53,0,0,1,.53-.53H36.8a.53.53,0,0,1,.53.53V41A5.43,5.43,0,0,1,31.9,46.42Zm-4.37-8.75V41a4.37,4.37,0,1,0,8.74,0V37.67Z"/><path d="M35.68,27.48H28.13a.17.17,0,0,1-.18-.17.18.18,0,0,1,.18-.18h7.55a.18.18,0,0,1,.17.18A.17.17,0,0,1,35.68,27.48Z"/><path d="M31.9,5a.18.18,0,0,1-.18-.18V.18a.18.18,0,1,1,.36,0V4.82A.18.18,0,0,1,31.9,5Z"/><path d="M44.94,11.14a.18.18,0,0,1-.13-.06.18.18,0,0,1,0-.24L48.1,7.55a.18.18,0,0,1,.25.25l-3.29,3.28A.16.16,0,0,1,44.94,11.14Z"/><path d="M54.43,22.61H49.79a.18.18,0,0,1,0-.36h4.64a.18.18,0,0,1,0,.36Z"/><path d="M19.59,11.14a.14.14,0,0,1-.12-.06L16.18,7.8a.18.18,0,0,1,.25-.25l3.28,3.29a.16.16,0,0,1,0,.24A.14.14,0,0,1,19.59,11.14Z"/><path d="M14.74,22.61H10.1a.18.18,0,0,1,0-.36h4.64a.18.18,0,1,1,0,.36Z"/><path d="M30.15,37.45a.53.53,0,0,1-.52-.51c0-.09-.41-8.48-4.25-12a.53.53,0,0,1,.72-.78c4.16,3.81,4.57,12.36,4.58,12.72a.53.53,0,0,1-.5.56Z"/><path d="M33.65,37.45h0a.54.54,0,0,1-.51-.56c0-.36.42-8.91,4.58-12.72a.53.53,0,0,1,.72.78c-3.84,3.51-4.24,11.9-4.24,12A.54.54,0,0,1,33.65,37.45Z"/><path d="M38.06,25.52c-.84,0-1.22-.79-1.5-1.36-.17-.34-.37-.76-.55-.76s-.39.42-.55.76c-.28.57-.66,1.36-1.5,1.36s-1.23-.79-1.51-1.36c-.16-.34-.36-.76-.55-.76s-.38.42-.55.76c-.27.57-.65,1.36-1.5,1.36s-1.22-.79-1.5-1.36c-.18-.36-.37-.76-.55-.76s-.38.4-.55.76c-.28.57-.66,1.36-1.51,1.36a.53.53,0,0,1,0-1.06c.18,0,.38-.41.55-.76.28-.58.66-1.36,1.51-1.36s1.22.78,1.5,1.36c.17.35.37.76.55.76s.39-.42.55-.76c.28-.58.66-1.36,1.5-1.36s1.23.78,1.51,1.36c.16.34.36.76.55.76s.38-.42.55-.76c.27-.58.65-1.36,1.5-1.36s1.22.78,1.5,1.36c.16.34.37.76.55.76a.53.53,0,0,1,0,1.06Z"/></g></g></svg>