<?xml version="1.0" encoding="UTF-8"?>
<svg id="_레이어_2" data-name="레이어 2" xmlns="http://www.w3.org/2000/svg" viewBox="0 0 51.04 88.4">
  <defs>
    <style>
      .cls-1 {
        fill: #ff5c5c;
      }
    </style>
  </defs>
  <g id="_레이어_2-2" data-name="레이어 2">
    <path class="cls-1" d="m47.78,14.36C43.89,5.59,35.32.19,25.77,0c-.11,0-.18,0-.25,0-.07,0-.14,0-.25,0C15.72.19,7.15,5.59,3.26,14.36c-7.93,17.9,0,40.32,8.7,56.45,1.95,3.62,3.85,7.25,6.18,10.65,1.55,2.27,3.02,5.13,5.56,6.47,1.19.63,2.45.63,3.63,0,2.55-1.34,3.95-3.79,5.51-6.06,2.33-3.4,4.28-7.43,6.23-11.06,8.69-16.13,16.63-38.55,8.7-56.45Zm-22.26,22.81c-6.47-.14-11.68-5.42-11.68-11.92s5.21-11.79,11.68-11.93c6.47.14,11.68,5.42,11.68,11.93s-5.21,11.79-11.68,11.92Z"/>
  </g>
</svg>