<?xml version="1.0" encoding="UTF-8"?>
<svg id="_레이어_2" data-name="레이어 2" xmlns="http://www.w3.org/2000/svg" xmlns:xlink="http://www.w3.org/1999/xlink" viewBox="0 0 118.45 99.33">
  <defs>
    <style>
      .cls-1 {
        fill: url(#_새_그라디언트_견본_1-5);
      }

      .cls-2 {
        fill: url(#_새_그라디언트_견본_1);
      }

      .cls-3 {
        fill: url(#_새_그라디언트_견본_1-3);
      }

      .cls-4 {
        fill: url(#_새_그라디언트_견본_1-4);
      }

      .cls-5 {
        fill: url(#_새_그라디언트_견본_1-2);
      }

      .cls-6 {
        fill: #515151;
      }
    </style>
    <linearGradient id="_새_그라디언트_견본_1" data-name="새 그라디언트 견본 1" x1="0" y1="24.46" x2="35.25" y2="24.46" gradientUnits="userSpaceOnUse">
      <stop offset="0" stop-color="#f25838"/>
      <stop offset=".21" stop-color="#ec4a2f"/>
      <stop offset=".61" stop-color="#de2819"/>
      <stop offset="1" stop-color="#cd0000"/>
    </linearGradient>
    <linearGradient id="_새_그라디언트_견본_1-2" data-name="새 그라디언트 견본 1" x1="22.09" x2="53.97" xlink:href="#_새_그라디언트_견본_1"/>
    <linearGradient id="_새_그라디언트_견본_1-3" data-name="새 그라디언트 견본 1" x1="44.17" x2="74.27" xlink:href="#_새_그라디언트_견본_1"/>
    <linearGradient id="_새_그라디언트_견본_1-4" data-name="새 그라디언트 견본 1" x1="64.7" x2="96.36" xlink:href="#_새_그라디언트_견본_1"/>
    <linearGradient id="_새_그라디언트_견본_1-5" data-name="새 그라디언트 견본 1" x1="83.42" x2="118.45" xlink:href="#_새_그라디언트_견본_1"/>
  </defs>
  <g id="_레이어_1-2" data-name="레이어 1">
    <g>
      <path class="cls-6" d="m101.63,99.33H16.82c-4.25,0-7.7-3.33-7.7-7.42v-47.64h8v47.06h84.22v-47.06h8v47.64c0,4.09-3.45,7.42-7.7,7.42Z"/>
      <path class="cls-6" d="m68.71,99.33h-18.98c-2.89,0-5.23-2.35-5.23-5.23v-26.15c0-2.89,2.35-5.23,5.23-5.23h18.98c2.89,0,5.23,2.35,5.23,5.23v26.15c0,2.89-2.35,5.23-5.23,5.23Zm-16.21-8h13.44v-20.61h-13.44v20.61Z"/>
      <g>
        <path class="cls-2" d="m15.01,48.92c-6.87,0-12.84-4.5-14.84-11.19-.21-.7-.22-1.45-.04-2.16L7.58,7.09C8.64,3.05,12.58,0,16.76,0h14.49c1.17,0,2.28.51,3.04,1.4.76.89,1.09,2.07.91,3.22l-5.16,32.59c-.03.19-.07.37-.13.55-2.06,6.67-8.04,11.16-14.9,11.16Zm-6.82-12.53c1.21,2.75,3.84,4.53,6.82,4.53,3.24,0,6.09-2.11,7.18-5.27l4.38-27.65h-9.8c-.52,0-1.31.61-1.44,1.11l-7.14,27.29Z"/>
        <path class="cls-5" d="m37.1,48.92c-6.87,0-12.83-4.5-14.85-11.19-.17-.58-.21-1.18-.12-1.78L27.3,3.37c.31-1.94,1.98-3.37,3.95-3.37h18.72c1.1,0,2.15.45,2.91,1.25.76.8,1.15,1.87,1.09,2.97l-1.79,32.59c-.02.33-.08.65-.17.96-2.06,6.67-8.05,11.16-14.9,11.16Zm-6.91-12.71c1.18,2.85,3.87,4.71,6.91,4.71s5.98-2.03,7.11-5.09l1.53-27.83h-11.08l-4.47,28.22Z"/>
        <path class="cls-3" d="m59.19,48.92c-6.87,0-12.83-4.5-14.85-11.18-.13-.44-.19-.91-.16-1.37l1.8-32.59c.12-2.12,1.87-3.78,3.99-3.78h18.72c2.13,0,3.89,1.68,4,3.81l1.57,32.59c.02.46-.04.93-.17,1.37-2.06,6.67-8.05,11.16-14.9,11.16Zm-6.98-12.89c1.14,2.95,3.87,4.89,6.98,4.89s5.88-1.95,7.05-4.92l-1.35-28.01h-11.13l-1.54,28.04Z"/>
        <path class="cls-4" d="m81.28,48.92c-6.87,0-12.83-4.5-14.84-11.19-.09-.31-.15-.63-.16-.96l-1.57-32.59c-.05-1.09.34-2.16,1.1-2.95.75-.79,1.8-1.24,2.9-1.24h18.72c1.98,0,3.66,1.45,3.95,3.4l4.94,32.59c.09.59.05,1.2-.13,1.78-2.06,6.67-8.04,11.16-14.9,11.16Zm-7.04-13.07c1.1,3.05,3.88,5.07,7.04,5.07s5.77-1.87,6.97-4.74l-4.28-28.19h-11.08l1.34,27.86Z"/>
        <path class="cls-1" d="m103.37,48.92c-6.87,0-12.83-4.5-14.84-11.19-.05-.18-.1-.36-.12-.55l-4.94-32.59c-.17-1.15.16-2.32.92-3.21.76-.88,1.87-1.39,3.03-1.39h14.49c4.19,0,8.13,3.06,9.16,7.12l7.26,28.48c.18.71.16,1.46-.05,2.16-2.05,6.68-8.04,11.16-14.9,11.16Zm-7.1-13.24c1.05,3.15,3.87,5.24,7.1,5.24,2.99,0,5.65-1.79,6.9-4.56l-6.96-27.28c-.12-.48-.91-1.09-1.41-1.09h-9.83l4.2,27.68Z"/>
      </g>
    </g>
  </g>
</svg>