<svg xmlns="http://www.w3.org/2000/svg" xmlns:xlink="http://www.w3.org/1999/xlink" viewBox="0 0 104.11 91.84"><defs><style>.cls-1{opacity:0.3;fill:url(#무제_그라디언트_17);}.cls-2{fill:url(#무제_그라디언트_37);}.cls-3{fill:url(#linear-gradient);}.cls-4{fill:url(#linear-gradient-2);}.cls-5{fill:url(#linear-gradient-3);}.cls-6{fill:#ffa9b6;}.cls-7{fill:none;stroke:#fff;stroke-miterlimit:10;stroke-width:0.35px;}.cls-8{fill:url(#무제_그라디언트_10);}.cls-9{fill:url(#무제_그라디언트_10-2);}.cls-10{fill:url(#무제_그라디언트_10-3);}.cls-11{fill:url(#무제_그라디언트_10-4);}.cls-12{fill:url(#linear-gradient-4);}.cls-13{fill:url(#linear-gradient-5);}.cls-14{fill:url(#linear-gradient-6);}.cls-15{fill:url(#linear-gradient-7);}.cls-16{fill:#6aa2a7;}.cls-17{fill:url(#무제_그라디언트_10-5);}.cls-18{fill:#fff;}.cls-19{fill:url(#linear-gradient-8);}.cls-20{fill:url(#무제_그라디언트_10-6);}.cls-21{fill:url(#무제_그라디언트_10-7);}.cls-22{fill:url(#무제_그라디언트_10-8);}.cls-23{fill:url(#무제_그라디언트_10-9);}.cls-24{fill:url(#linear-gradient-9);}.cls-25{fill:url(#무제_그라디언트_2);}.cls-26{fill:url(#무제_그라디언트_2-2);}.cls-27{fill:url(#무제_그라디언트_2-3);}.cls-28{fill:url(#linear-gradient-10);}.cls-29{fill:url(#무제_그라디언트_2-4);}.cls-30{fill:url(#무제_그라디언트_2-5);}.cls-31{fill:url(#무제_그라디언트_2-6);}.cls-32{fill:url(#무제_그라디언트_2-7);}.cls-33{fill:url(#무제_그라디언트_2-8);}.cls-34{fill:url(#무제_그라디언트_254);}.cls-35{fill:url(#무제_그라디언트_254-2);}.cls-36{fill:url(#무제_그라디언트_254-3);}.cls-37{fill:url(#무제_그라디언트_254-4);}</style><linearGradient id="무제_그라디언트_17" x1="12.08" y1="58.35" x2="22.28" y2="70.59" gradientUnits="userSpaceOnUse"><stop offset="0" stop-color="#f7d4b6"/><stop offset="1"/></linearGradient><linearGradient id="무제_그라디언트_37" x1="104.23" y1="62.47" x2="104.79" y2="62.47" gradientUnits="userSpaceOnUse"><stop offset="0.08" stop-color="#fff"/><stop offset="1" stop-color="#ccc"/></linearGradient><linearGradient id="linear-gradient" x1="63.54" y1="38.81" x2="26.1" y2="76.25" gradientUnits="userSpaceOnUse"><stop offset="0" stop-color="#f0f0f0"/><stop offset="1" stop-color="#ccc"/></linearGradient><linearGradient id="linear-gradient-2" x1="82.33" y1="27.74" x2="37.08" y2="79.24" gradientUnits="userSpaceOnUse"><stop offset="0" stop-color="#ed9297"/><stop offset="0.38" stop-color="#ec9095"/><stop offset="0.52" stop-color="#e78a8e"/><stop offset="0.62" stop-color="#df7f82"/><stop offset="0.67" stop-color="#d77477"/></linearGradient><linearGradient id="linear-gradient-3" x1="35.64" y1="-9.55" x2="40.39" y2="51.2" xlink:href="#linear-gradient-2"/><linearGradient id="무제_그라디언트_10" x1="59.3" y1="14.59" x2="60.82" y2="21.75" gradientUnits="userSpaceOnUse"><stop offset="0" stop-color="#fff"/><stop offset="0.3" stop-color="#f4f4f4"/><stop offset="0.83" stop-color="#d7d7d7"/><stop offset="1" stop-color="#ccc"/></linearGradient><linearGradient id="무제_그라디언트_10-2" x1="66.64" y1="13.03" x2="68.16" y2="20.19" xlink:href="#무제_그라디언트_10"/><linearGradient id="무제_그라디언트_10-3" x1="75.22" y1="11.2" x2="76.75" y2="18.36" xlink:href="#무제_그라디언트_10"/><linearGradient id="무제_그라디언트_10-4" x1="83.04" y1="9.54" x2="84.57" y2="16.7" xlink:href="#무제_그라디언트_10"/><linearGradient id="linear-gradient-4" x1="37.56" y1="86.14" x2="37.56" y2="55.76" gradientUnits="userSpaceOnUse"><stop offset="0" stop-color="#87cad0"/><stop offset="0.32" stop-color="#7fbfc5"/><stop offset="0.88" stop-color="#6ba3a8"/><stop offset="0.89" stop-color="#6aa2a7"/></linearGradient><linearGradient id="linear-gradient-5" x1="-363.97" y1="77.78" x2="-363.97" y2="60.7" gradientTransform="matrix(-1, 0, 0, 1, -295.83, 0)" xlink:href="#linear-gradient-4"/><linearGradient id="linear-gradient-6" x1="-373.85" y1="73.17" x2="-373.85" y2="56.09" gradientTransform="matrix(-1, 0, 0, 1, -295.83, 0)" xlink:href="#linear-gradient-4"/><linearGradient id="linear-gradient-7" x1="-383.74" y1="68.55" x2="-383.74" y2="51.48" gradientTransform="matrix(-1, 0, 0, 1, -295.83, 0)" xlink:href="#linear-gradient-4"/><linearGradient id="무제_그라디언트_10-5" x1="-58.33" y1="151.86" x2="-58.33" y2="154.39" gradientTransform="translate(-3.77 -117.72) rotate(-27.96)" xlink:href="#무제_그라디언트_10"/><linearGradient id="linear-gradient-8" x1="13.51" y1="48.87" x2="7.35" y2="8.78" gradientTransform="matrix(0.42, 0.91, -0.91, 0.42, 40.25, 20.79)" xlink:href="#linear-gradient-2"/><linearGradient id="무제_그라디언트_10-6" x1="-1.91" y1="67.52" x2="-1.41" y2="69.84" gradientTransform="translate(2.91 -17.15) rotate(-4.06)" xlink:href="#무제_그라디언트_10"/><linearGradient id="무제_그라디언트_10-7" x1="0.29" y1="67" x2="0.79" y2="69.33" gradientTransform="translate(2.91 -17.15) rotate(-4.06)" xlink:href="#무제_그라디언트_10"/><linearGradient id="무제_그라디언트_10-8" x1="2.87" y1="66.4" x2="3.36" y2="68.71" gradientTransform="translate(2.91 -17.15) rotate(-4.06)" xlink:href="#무제_그라디언트_10"/><linearGradient id="무제_그라디언트_10-9" x1="5.2" y1="65.85" x2="5.7" y2="68.18" gradientTransform="translate(2.91 -17.15) rotate(-4.06)" xlink:href="#무제_그라디언트_10"/><linearGradient id="linear-gradient-9" x1="-392.23" y1="77.63" x2="-375.82" y2="77.63" gradientTransform="matrix(-1, 0.07, 0.07, 1, -353.13, 10.12)" gradientUnits="userSpaceOnUse"><stop offset="0" stop-color="#f77779"/><stop offset="0.25" stop-color="#ef6e6e"/><stop offset="0.7" stop-color="#da5551"/><stop offset="0.89" stop-color="#cf4942"/></linearGradient><linearGradient id="무제_그라디언트_2" x1="-388.21" y1="77.86" x2="-391.71" y2="72.29" gradientTransform="matrix(-1, 0.07, 0.07, 1, -353.13, 10.12)" gradientUnits="userSpaceOnUse"><stop offset="0" stop-color="#fff"/><stop offset="1" stop-color="#ccc"/></linearGradient><linearGradient id="무제_그라디언트_2-2" x1="-384.83" y1="76.12" x2="-388.33" y2="70.57" xlink:href="#무제_그라디언트_2"/><linearGradient id="무제_그라디언트_2-3" x1="-381.53" y1="74.38" x2="-384.97" y2="68.9" xlink:href="#무제_그라디언트_2"/><linearGradient id="linear-gradient-10" x1="59.18" y1="53.51" x2="104.11" y2="53.51" gradientTransform="matrix(1, 0, 0, 1, 0, 0)" xlink:href="#linear-gradient-9"/><linearGradient id="무제_그라디언트_2-4" x1="67.19" y1="57.16" x2="60.21" y2="46.07" gradientTransform="matrix(1, 0, 0, 1, 0, 0)" xlink:href="#무제_그라디언트_2"/><linearGradient id="무제_그라디언트_2-5" x1="73.89" y1="53.68" x2="66.95" y2="42.64" gradientTransform="matrix(1, 0, 0, 1, 0, 0)" xlink:href="#무제_그라디언트_2"/><linearGradient id="무제_그라디언트_2-6" x1="80.48" y1="50.22" x2="73.63" y2="39.33" gradientTransform="matrix(1, 0, 0, 1, 0, 0)" xlink:href="#무제_그라디언트_2"/><linearGradient id="무제_그라디언트_2-7" x1="87.09" y1="46.82" x2="80.27" y2="35.98" gradientTransform="matrix(1, 0, 0, 1, 0, 0)" xlink:href="#무제_그라디언트_2"/><linearGradient id="무제_그라디언트_2-8" x1="93.68" y1="43.47" x2="87.01" y2="32.86" gradientTransform="matrix(1, 0, 0, 1, 0, 0)" xlink:href="#무제_그라디언트_2"/><radialGradient id="무제_그라디언트_254" cx="27.84" cy="30.07" r="1.35" gradientUnits="userSpaceOnUse"><stop offset="0.32" stop-color="#fff"/><stop offset="0.99" stop-color="#ccc"/></radialGradient><radialGradient id="무제_그라디언트_254-2" cx="53.82" cy="41" r="1.35" xlink:href="#무제_그라디언트_254"/><radialGradient id="무제_그라디언트_254-3" cx="-444.24" cy="28.26" r="1.35" gradientTransform="matrix(-1, 0, 0, 1, -356.29, 0)" xlink:href="#무제_그라디언트_254"/><radialGradient id="무제_그라디언트_254-4" cx="-420.45" cy="41" r="1.35" gradientTransform="matrix(-1, 0, 0, 1, -356.29, 0)" xlink:href="#무제_그라디언트_254"/></defs><title>store4</title><g id="Layer_2" data-name="Layer 2"><g id="Layer_1-2" data-name="Layer 1"><path class="cls-1" d="M22,75.89.91,65.5s-2.52-2.1.84-4.06l18.66-13.7Z"/><path class="cls-2" d="M58.83,51.51,95.47,33.09l-.13,40L59.18,91.84S59.35,51.51,58.83,51.51Z"/><polygon class="cls-3" points="18.99 34.7 18.99 74.58 59.18 91.84 59.18 51.46 18.99 34.7"/><path class="cls-4" d="M58.83,34.17l28.08-14.1,8.56,13-36.29,19S59.35,34.17,58.83,34.17Z"/><polygon class="cls-5" points="28.3 21.56 18.99 34.81 59.18 52.08 59.18 34.17 28.3 21.56"/><polygon class="cls-6" points="59.18 34.17 86.91 20.07 58.04 8.53 28.3 21.56 59.18 34.17"/><line class="cls-7" x1="59.85" y1="22.07" x2="59.85" y2="31.68"/><line class="cls-7" x1="64.59" y1="19.98" x2="64.59" y2="29.59"/><line class="cls-7" x1="69.06" y1="17.46" x2="69.06" y2="27.08"/><line class="cls-7" x1="75.48" y1="14.39" x2="75.48" y2="24.01"/><line class="cls-7" x1="80.78" y1="11.6" x2="80.78" y2="21.21"/><path class="cls-8" d="M61.7,20.59A4.5,4.5,0,0,1,60,22.43a2.93,2.93,0,0,1-.59.28,6,6,0,0,1-.65.2,5.12,5.12,0,0,1-.57.11,1.47,1.47,0,0,1-.4,0c-.08,0-.13,0-.15-.07a.42.42,0,0,1,0-.24l.07-1.51a.46.46,0,0,1,.05-.2s.08-.05.17,0a2.41,2.41,0,0,0,.47,0,3.76,3.76,0,0,0,.55-.1q.27-.08.54-.18a1.89,1.89,0,0,0,.48-.28,2.16,2.16,0,0,0,.64-.8,2.83,2.83,0,0,0,.18-1.08,1.87,1.87,0,0,0,0-.3,1.24,1.24,0,0,0-.17-.32,1.64,1.64,0,0,0-.33-.31,2.17,2.17,0,0,0-.53-.28,9.23,9.23,0,0,1-1-.48,3.34,3.34,0,0,1-.7-.55,2.07,2.07,0,0,1-.4-.71,3.12,3.12,0,0,1-.15-.93,4.82,4.82,0,0,1,.18-1.35,5,5,0,0,1,.53-1.26A4.49,4.49,0,0,1,59,11a3.3,3.3,0,0,1,1-.71,4.16,4.16,0,0,1,.95-.33,2.15,2.15,0,0,1,.66,0c.09,0,.15,0,.16.08a.81.81,0,0,1,0,.23l-.18,1.37a.38.38,0,0,1-.08.2s-.1.06-.21.05a3.08,3.08,0,0,0-.94.16,2,2,0,0,0-.74.45,2.16,2.16,0,0,0-.49.7,2.19,2.19,0,0,0-.16.9,1,1,0,0,0,.25.63,1.85,1.85,0,0,0,.77.47,9.12,9.12,0,0,1,1.11.52,2.65,2.65,0,0,1,.72.56,1.71,1.71,0,0,1,.38.7,3.23,3.23,0,0,1,.13.94,5.34,5.34,0,0,1-.15,1.39A6.64,6.64,0,0,1,61.7,20.59Z"/><path class="cls-9" d="M64.06,20.34a.18.18,0,0,1-.17,0,.33.33,0,0,1,0-.22l-.21-11a.37.37,0,0,1,.21-.4l1-.48c.14-.07.21,0,.22.2l.08,4.39,3-1.36-.09-4.4a.4.4,0,0,1,.21-.4l1-.47c.15-.07.22,0,.22.2l.22,11a.56.56,0,0,1,0,.26.35.35,0,0,1-.17.14l-1,.48c-.08,0-.13,0-.17,0s0-.09,0-.21l-.09-4.7-3,1.37.09,4.69a.51.51,0,0,1,0,.27.34.34,0,0,1-.17.13Z"/><path class="cls-10" d="M77.74,12.57a6.52,6.52,0,0,1-1.18,1.86A4.93,4.93,0,0,1,75,15.58a2.61,2.61,0,0,1-1.68.27,2,2,0,0,1-1.18-.79,4.31,4.31,0,0,1-.69-1.62,10.62,10.62,0,0,1-.26-2.2,12.73,12.73,0,0,1,.17-2.37A10.06,10.06,0,0,1,72,6.64a7.22,7.22,0,0,1,1.13-1.86,4.72,4.72,0,0,1,1.64-1.26,2.52,2.52,0,0,1,1.66-.25,2.16,2.16,0,0,1,1.17.81,4.7,4.7,0,0,1,.72,1.61,9.7,9.7,0,0,1,.25,2.16,14.4,14.4,0,0,1-.18,2.51A9.91,9.91,0,0,1,77.74,12.57ZM74.8,5.39a2.38,2.38,0,0,0-1,.8,4.63,4.63,0,0,0-.66,1.25A7.76,7.76,0,0,0,72.82,9a10.54,10.54,0,0,0-.09,1.58A8.5,8.5,0,0,0,72.88,12a3.45,3.45,0,0,0,.42,1.15,1.41,1.41,0,0,0,.69.64,1.17,1.17,0,0,0,1-.08,2.42,2.42,0,0,0,1-.8,4.55,4.55,0,0,0,.65-1.26,7.76,7.76,0,0,0,.36-1.51A10.69,10.69,0,0,0,77,8.56a8.36,8.36,0,0,0-.15-1.44A3.68,3.68,0,0,0,76.45,6a1.51,1.51,0,0,0-.68-.65A1.13,1.13,0,0,0,74.8,5.39Z"/><path class="cls-11" d="M81.54,7.77l.08,4.2a.66.66,0,0,1,0,.29.4.4,0,0,1-.17.13l-1,.47a.2.2,0,0,1-.16,0s-.06-.1-.06-.24l-.21-11a.42.42,0,0,1,0-.27.37.37,0,0,1,.15-.13l2.16-1A2.91,2.91,0,0,1,83.39,0a1.29,1.29,0,0,1,.85.26,1.79,1.79,0,0,1,.56.85A4.51,4.51,0,0,1,85,2.58a6.13,6.13,0,0,1-.18,1.63,5.85,5.85,0,0,1-.55,1.38,4.55,4.55,0,0,1-.86,1.08,4,4,0,0,1-1.08.73Zm-.1-5.2.06,3.34.72-.33a2.26,2.26,0,0,0,1-.86,2.81,2.81,0,0,0,.32-1.47,1.63,1.63,0,0,0-.3-1.09.6.6,0,0,0-.74-.07Z"/><polygon class="cls-12" points="31.51 79.72 31.51 54.12 43.6 59.27 43.6 85.11 31.51 79.72"/><polygon class="cls-13" points="71.57 73.74 71.57 59.78 64.7 63.15 64.7 77.2 71.57 73.74"/><polygon class="cls-14" points="81.45 69.13 81.45 55.17 74.59 58.54 74.59 72.59 81.45 69.13"/><polygon class="cls-15" points="91.34 64.51 91.34 50.55 84.47 53.92 84.47 67.98 91.34 64.51"/><polygon class="cls-16" points="31.51 79.72 43.6 85.11 43.6 73.21 31.51 79.72"/><path class="cls-17" d="M20.83,42.69,12.64,48a.68.68,0,0,1-1-.32h0a.81.81,0,0,1,.29-1l8.19-5.31a.69.69,0,0,1,1,.32h0A.81.81,0,0,1,20.83,42.69Z"/><ellipse class="cls-18" cx="8.18" cy="48.45" rx="9.26" ry="6.48" transform="translate(-39.02 34.81) rotate(-64.29)"/><ellipse class="cls-19" cx="8.94" cy="48.91" rx="9.12" ry="5.73" transform="translate(-38.69 34.63) rotate(-62.95)"/><path class="cls-20" d="M6.64,52.21a1.58,1.58,0,0,1-.2.36,1.12,1.12,0,0,1-.26.27L6,53,5.82,53l-.17,0H5.53s0,0,0,0,0,0,0-.07v-.49s0-.06,0-.07,0,0,0,0h.14l.16-.05L6,52.3l.13-.1a.71.71,0,0,0,.2-.62.36.36,0,0,0,0-.1.47.47,0,0,0,0-.1l-.11-.09A.48.48,0,0,0,6,51.21l-.32-.13a.89.89,0,0,1-.21-.16.74.74,0,0,1-.14-.22,1.13,1.13,0,0,1-.06-.3,1.63,1.63,0,0,1,0-.44,1.87,1.87,0,0,1,.13-.42,2.16,2.16,0,0,1,.22-.36,1.33,1.33,0,0,1,.29-.25,1.23,1.23,0,0,1,.28-.12l.19,0,0,0a.17.17,0,0,1,0,.08l0,.45a.08.08,0,0,1,0,.06l-.06,0a.9.9,0,0,0-.28.08.65.65,0,0,0-.21.16.72.72,0,0,0-.12.23.73.73,0,0,0,0,.3.3.3,0,0,0,.08.2.54.54,0,0,0,.24.13l.34.14a.69.69,0,0,1,.23.17.74.74,0,0,1,.13.21,1.34,1.34,0,0,1,0,.3,1.76,1.76,0,0,1,0,.46A3.25,3.25,0,0,1,6.64,52.21Z"/><path class="cls-21" d="M7.33,52.08s0,0,0,0a.1.1,0,0,1,0-.07L7,48.48a.12.12,0,0,1,0-.13l.3-.18s.06,0,.07.06l.12,1.41.85-.5-.12-1.42a.14.14,0,0,1,.06-.13l.3-.18s.06,0,.07.06L9,51a.19.19,0,0,1,0,.08.07.07,0,0,1,0,0l-.3.18h0a.1.1,0,0,1,0-.07l-.13-1.51-.85.5.12,1.52a.21.21,0,0,1,0,.08l0,0Z"/><path class="cls-22" d="M11.23,49.26a2.64,2.64,0,0,1-.31.63,1.51,1.51,0,0,1-.44.4.73.73,0,0,1-.5.13.59.59,0,0,1-.36-.23,1.51,1.51,0,0,1-.24-.51,3.51,3.51,0,0,1-.12-.7,3.3,3.3,0,0,1,0-.77,3.37,3.37,0,0,1,.14-.73,2.59,2.59,0,0,1,.29-.63,1.6,1.6,0,0,1,.46-.44.7.7,0,0,1,.49-.12.61.61,0,0,1,.36.24,1.23,1.23,0,0,1,.25.5,3.54,3.54,0,0,1,.12.69,5.47,5.47,0,0,1,0,.81A3.37,3.37,0,0,1,11.23,49.26ZM10.2,47a.78.78,0,0,0-.26.28,1.32,1.32,0,0,0-.17.42,2.51,2.51,0,0,0-.08.49,3,3,0,0,0,0,.52,3.54,3.54,0,0,0,.07.47,1.5,1.5,0,0,0,.15.36.49.49,0,0,0,.22.19.36.36,0,0,0,.29-.05.78.78,0,0,0,.26-.28,1.6,1.6,0,0,0,.17-.42,2.51,2.51,0,0,0,.07-.5,4.34,4.34,0,0,0,0-.51,3.4,3.4,0,0,0-.08-.46,1.5,1.5,0,0,0-.14-.36.52.52,0,0,0-.22-.2A.36.36,0,0,0,10.2,47Z"/><path class="cls-23" d="M12.25,47.63,12.37,49a.22.22,0,0,1,0,.09.12.12,0,0,1,0,0l-.29.17s0,0,0,0,0,0,0-.07l-.29-3.53a.22.22,0,0,1,0-.09.1.1,0,0,1,0,0l.62-.37a.94.94,0,0,1,.32-.11.34.34,0,0,1,.26.06.6.6,0,0,1,.18.26,1.74,1.74,0,0,1,.1.47,2.31,2.31,0,0,1,0,.53,1.65,1.65,0,0,1-.14.46,1.43,1.43,0,0,1-.23.37,1.48,1.48,0,0,1-.3.26ZM12.11,46,12.2,47l.21-.12a.61.61,0,0,0,.27-.3,1,1,0,0,0,.07-.48.56.56,0,0,0-.11-.34.17.17,0,0,0-.22,0Z"/><polygon class="cls-24" points="31.5 54.05 43.79 59.22 39.52 64.44 27.32 58.98 31.5 54.05"/><polygon class="cls-25" points="41.91 58.41 37.76 63.64 36.02 62.89 40.17 57.7 41.91 58.41"/><polygon class="cls-26" points="38.45 56.94 34.26 62.1 32.51 61.36 36.7 56.24 38.45 56.94"/><polygon class="cls-27" points="34.97 55.45 30.88 60.56 29.16 59.83 33.25 54.75 34.97 55.45"/><polygon class="cls-28" points="95.47 39.42 59.18 57.84 68.42 67.59 104.11 48.32 95.47 39.42"/><polygon class="cls-29" points="62.79 55.98 71.79 65.75 75.14 64 66.14 54.3 62.79 55.98"/><polygon class="cls-30" points="69.44 52.55 78.51 62.16 81.89 60.45 72.82 50.91 69.44 52.55"/><polygon class="cls-31" points="76.14 49.08 85.01 58.63 88.31 56.92 79.44 47.44 76.14 49.08"/><polygon class="cls-32" points="82.7 45.73 91.63 55.13 94.96 53.45 86.02 44.12 82.7 45.73"/><polygon class="cls-33" points="89.39 42.39 98.13 51.6 101.38 49.96 92.64 40.81 89.39 42.39"/><circle class="cls-34" cx="27.84" cy="30.07" r="1.35"/><circle class="cls-35" cx="53.82" cy="41" r="1.35"/><circle class="cls-36" cx="87.95" cy="28.26" r="1.35"/><circle class="cls-37" cx="64.16" cy="41" r="1.35"/></g></g></svg>