<svg xmlns="http://www.w3.org/2000/svg" viewBox="0 0 95.72 76.16"><defs><style>.cls-1{fill:#fff;}.cls-2{fill:#ffd42e;}</style></defs><title>trust2</title><g id="Layer_2" data-name="Layer 2"><g id="Layer_1-2" data-name="Layer 1"><path d="M52.83,6a.51.51,0,0,1-.42-.21L49.13,1.4,45.84,5.78A.53.53,0,0,1,45,5.14L48.7.2a.55.55,0,0,1,.85,0l3.71,4.94a.54.54,0,0,1-.11.74A.56.56,0,0,1,52.83,6Z"/><path class="cls-1" d="M79.48,27.15c1,1.74,2,3.48,3,5.22q3.78,6.57,7.61,13.11c.3.52.6,1,.91,1.55C84.09,50.31,72,57.86,69.2,59.58,62,64.06,50.93,72.66,47,72.66c-2.32,0-3.87-1.29-2-2.94a5.18,5.18,0,0,1-5.87-.79c-.9-1.1-.78-2.18-.19-3.54-1.68,0-3.63,0-4.62-1.25s-.69-3.45.2-4.91c-1.78.85-5.75,2-7.4-.88-7.25-12.81-2-22-.29-21.88,3.25.27,5.83,3.18,9.13,2.07C54.19,32.43,55.47,34.12,58.28,35,66.91,38.31,73.52,31.15,79.48,27.15Z"/><path d="M47,73.19c-1.65,0-2.9-.58-3.25-1.52a1.59,1.59,0,0,1-.05-1,5.52,5.52,0,0,1-5-1.46,3.29,3.29,0,0,1-.55-3.33c-1.46,0-3.26-.17-4.26-1.47a4.63,4.63,0,0,1-.42-4.24c-2.51.86-5.43.86-6.83-1.61-5.67-10-3.81-18-1.81-21.09.39-.62,1.18-1.64,2-1.58a11.9,11.9,0,0,1,3.88,1.23c1.68.75,3.27,1.46,5.05.87,16.77-5.62,19.4-4.69,21.94-3.8l.72.24h0c6.79,2.61,12.4-1.61,17.36-5.34,1.16-.88,2.26-1.7,3.35-2.44a.53.53,0,0,1,.42-.07.51.51,0,0,1,.34.25l.35.61q1.3,2.31,2.62,4.6c2.38,4.14,4.87,8.43,7.61,13.12l.9,1.55a.48.48,0,0,1,0,.42.5.5,0,0,1-.28.32C86.7,49.65,79.2,54,69.48,60c-2,1.26-4.31,2.82-6.74,4.47C56.46,68.77,50,73.19,47,73.19Zm-2-4a.53.53,0,0,1,.35.93c-.3.26-.79.77-.63,1.18s1,.83,2.26.83h0c2.68,0,9.32-4.52,15.17-8.5,2.44-1.66,4.75-3.23,6.78-4.5C78.3,53.29,85.65,49,90.22,46.81l-.62-1.06c-2.74-4.69-5.23-9-7.61-13.12-.88-1.53-1.75-3.07-2.62-4.6l-.07-.12c-.92.64-1.85,1.34-2.83,2.08-5.18,3.89-11,8.31-18.36,5.5l-.74-.25C55,34.4,52.54,33.54,36.11,39c-2.16.73-4-.1-5.81-.91A11.09,11.09,0,0,0,26.76,37c-.16,0-.73.45-1.37,1.65-.71,1.35-3.95,8.64,2.17,19.44,1.68,3,6.2.91,6.71.66a.53.53,0,0,1,.68.76c-.78,1.26-1.07,3.22-.23,4.31s2.44,1.08,4.19,1a.57.57,0,0,1,.45.24.53.53,0,0,1,0,.5c-.59,1.36-.56,2.17.11,3a4.68,4.68,0,0,0,5.21.66A.57.57,0,0,1,45,69.19Z"/><path d="M33.7,60.11a.53.53,0,0,1-.47-.29.52.52,0,0,1,.22-.71L38,56.75a.53.53,0,0,1,.49.93l-4.5,2.37A.5.5,0,0,1,33.7,60.11Z"/><path d="M38.31,65.93a.53.53,0,0,1-.53-.46.52.52,0,0,1,.46-.59,8.25,8.25,0,0,0,3-1.28.53.53,0,0,1,.62.86,9.3,9.3,0,0,1-3.47,1.47Z"/><path d="M82.92,54.41c4.75-2.69,7.5-3.93,11.47-6.45a1.58,1.58,0,0,0,.77-.8A1.65,1.65,0,0,0,94.85,46q-6.5-11.27-13-22.53c-.22-.38-.5-.8-.93-.89a1.59,1.59,0,0,0-1,.29C76,25,72,27.16,68.27,29.41c-.66.72-.2,1.86.29,2.7L81.08,54A1.5,1.5,0,0,0,82.92,54.41Z"/><path d="M82.3,55.1a2,2,0,0,1-1.68-.87L68.1,32.38c-.83-1.45-.91-2.57-.23-3.32L68,29c3.75-2.26,7.77-4.47,11.66-6.61A2.08,2.08,0,0,1,81.06,22a2.11,2.11,0,0,1,1.28,1.15l13,22.53a2.14,2.14,0,0,1,.36,1.62,2.06,2.06,0,0,1-1,1.1c-2.48,1.57-4.48,2.64-6.79,3.88-1.43.77-2.9,1.56-4.7,2.58A1.78,1.78,0,0,1,82.3,55.1ZM68.62,29.82c-.36.48,0,1.36.4,2L81.54,53.7a1,1,0,0,0,1.12.25h0c1.8-1,3.29-1.82,4.72-2.59,2.3-1.23,4.28-2.29,6.73-3.84.24-.16.49-.33.54-.51s-.1-.51-.26-.79l-13-22.53c-.18-.31-.37-.6-.58-.64a1.21,1.21,0,0,0-.68.23C76.31,25.4,72.33,27.59,68.62,29.82Z"/><path class="cls-1" d="M16.25,27.15q-1.48,2.61-3,5.22-3.78,6.57-7.6,13.11L4.76,47c6.88,3.28,18.47,9.73,19.33,12.86,1.65,6,20.9,14.19,24.67,15.42,4.46,1.45,7.65-2.28,2-5.59,2.26,1.19,7.59,5,10.23,1.41,2.49-3.35-3.33-5.28-4.54-6,1.32.64,8.22,4.75,10.72.75s-4.5-5.82-5.89-6.73c1.77.86,9.79,6.55,12,1.83,2.37-5.07-4.89-7.1-19-14.78-.49-.26-2.41-1.43-3.72-1.15-3.46.87-3.55,1.6-11.09,5.69-9.81,5.33-6.31-3.33-1.27-8,3.52-3.25,6.16-6,12.09-8.26-3.66-1.75-10.06-.38-12.87.49C28.81,38.31,22.21,31.15,16.25,27.15Z"/><path d="M50.71,76.16a6.81,6.81,0,0,1-2.12-.35c-2.31-.75-23.18-9.19-25-15.78-.68-2.48-10.22-8.31-19-12.52a.52.52,0,0,1-.23-.74l.91-1.55c2.74-4.69,5.23-9,7.6-13.12q1.32-2.3,2.63-4.6l.35-.61a.49.49,0,0,1,.33-.25.51.51,0,0,1,.42.07c1.1.74,2.2,1.56,3.36,2.44,5,3.73,10.57,8,17.35,5.34h0c.89-.27,8.78-2.6,13.26-.46a.53.53,0,0,1,.3.5.52.52,0,0,1-.34.47c-5.38,2.07-8,4.55-11.12,7.42l-.8.74C35.18,46.3,33.16,50.5,34,51.6c.39.55,2,.49,5.29-1.3C42,48.81,43.73,47.77,45,47a16.9,16.9,0,0,1,5.44-2.46c1.42-.29,3.27.74,4,1.13l.13.08c3,1.63,5.67,3,8,4.22,8.81,4.52,13.23,6.79,11.15,11.24a3.51,3.51,0,0,1-2.17,2A6.48,6.48,0,0,1,67.89,63a2.72,2.72,0,0,1,.19.47,3.26,3.26,0,0,1-.48,2.72c-1.35,2.15-3.77,2.22-6.06,1.66a2.85,2.85,0,0,1-.14,3.6c-1.88,2.54-4.91,1.79-7.41.62a2.67,2.67,0,0,1,.11,2.3A3.5,3.5,0,0,1,50.71,76.16ZM5.51,46.81c3,1.46,18,9,19.1,12.94,1.5,5.43,19.77,13.58,24.31,15,2.09.68,3.79.1,4.22-.86s-.12-2.28-2.66-3.76a.53.53,0,0,1,.51-.93c.29.15.64.35,1,.57,2.43,1.4,6.51,3.74,8.54,1A2,2,0,0,0,61,69.14c-.24-.94-1.35-1.74-2.45-2.34-.77-.35-1.43-.69-1.88-.93l-.09,0-.43-.22a.53.53,0,0,1,.49-.93l.41.2.37.17c.47.22,1,.49,1.63.81,2.47,1.09,6.11,2.21,7.64-.24a2.16,2.16,0,0,0,.36-1.85,3.32,3.32,0,0,0-1.16-1.51,39.14,39.14,0,0,1-3.76-2l-.6-.34a4.74,4.74,0,0,1-.57-.31.54.54,0,0,1-.17-.71.53.53,0,0,1,.69-.21c.15.07.33.17.54.29l.76.34a18.51,18.51,0,0,1,3.66,2c1.69.74,3.49,1.24,4.79.84a2.47,2.47,0,0,0,1.53-1.41c1.57-3.35-1.51-5.15-10.67-9.85-2.37-1.21-5.05-2.59-8.06-4.23l-.14-.08c-.55-.31-2.2-1.24-3.21-1a15.66,15.66,0,0,0-5.14,2.33c-1.29.76-3,1.81-5.81,3.31-3.57,1.93-5.74,2.26-6.65,1-1.45-2,1.8-7.1,4.77-9.85l.8-.74c2.91-2.7,5.45-5.07,10.17-7.1-3.44-.88-8.5.12-11.22,1a12.75,12.75,0,0,1-4.63.88c-5.24,0-9.69-3.34-13.72-6.38-1-.74-1.92-1.44-2.84-2.08l-.06.12-2.63,4.6c-2.38,4.14-4.87,8.43-7.61,13.12Z"/><path d="M62,60.11a.54.54,0,0,1-.25-.06l-4.49-2.37a.53.53,0,1,1,.49-.93l4.49,2.36a.53.53,0,0,1,.23.71A.54.54,0,0,1,62,60.11Z"/><path d="M57.21,66.13a.52.52,0,0,1-.29-.09,10.39,10.39,0,0,0-1.52-.78,8.6,8.6,0,0,1-1.51-.8.53.53,0,0,1,.62-.86,7,7,0,0,0,1.32.69,11.15,11.15,0,0,1,1.67.87.53.53,0,0,1,.15.73A.51.51,0,0,1,57.21,66.13Z"/><path class="cls-2" d="M12.8,54.41C8.05,51.72,5.31,50.48,1.33,48a1.58,1.58,0,0,1-.77-.8A1.61,1.61,0,0,1,.88,46q6.48-11.27,13-22.53c.22-.38.49-.8.92-.89a1.62,1.62,0,0,1,1.05.29c3.95,2.17,7.9,4.34,11.64,6.59.65.72.19,1.86-.29,2.7L14.64,54A1.5,1.5,0,0,1,12.8,54.41Z"/><path d="M13.43,55.1a1.82,1.82,0,0,1-.89-.23h0c-1.79-1-3.27-1.81-4.7-2.58C5.53,51.05,3.54,50,1.05,48.41a2.05,2.05,0,0,1-1-1.1,2.05,2.05,0,0,1,.36-1.62l13-22.53A2.09,2.09,0,0,1,14.67,22a2,2,0,0,1,1.4.34C20,24.49,24,26.7,27.73,29a.4.4,0,0,1,.12.1c.68.75.61,1.87-.22,3.32L15.1,54.23A2,2,0,0,1,13.43,55.1ZM14.94,23h-.06c-.2,0-.4.33-.57.64l-13,22.53c-.16.28-.33.59-.27.79s.3.35.55.51c2.45,1.55,4.43,2.61,6.72,3.84,1.44.77,2.92,1.56,4.73,2.59h0a1,1,0,0,0,1.11-.25L26.71,31.85c.38-.67.75-1.55.4-2-3.71-2.23-7.7-4.42-11.55-6.54A1.57,1.57,0,0,0,14.94,23Z"/><path class="cls-1" d="M8.2,45.41a2.32,2.32,0,1,1,2.31,2.32A2.32,2.32,0,0,1,8.2,45.41Z"/><path d="M10.51,48.26a2.85,2.85,0,1,1,2.85-2.85A2.85,2.85,0,0,1,10.51,48.26Zm0-4.63a1.79,1.79,0,1,0,1.79,1.78A1.78,1.78,0,0,0,10.51,43.63Z"/><path class="cls-1" d="M82.63,45.41a2.31,2.31,0,1,1,2.31,2.32A2.31,2.31,0,0,1,82.63,45.41Z"/><path d="M84.94,48.26a2.85,2.85,0,1,1,2.84-2.85A2.85,2.85,0,0,1,84.94,48.26Zm0-4.63a1.79,1.79,0,1,0,1.78,1.78A1.78,1.78,0,0,0,84.94,43.63Z"/><path class="cls-1" d="M31.48,61.09c-1,.15-4.38,1.72-4.6,3.6-.2,1.69,1.45,2.91,2.87,3.71a1.89,1.89,0,0,0,1.26.36,2,2,0,0,0,1.1-.94,7.91,7.91,0,0,0,1.75-3.71C34,62.73,33.11,60.86,31.48,61.09Z"/><path d="M30.82,69.31a2.73,2.73,0,0,1-1.33-.45c-.84-.47-3.41-1.91-3.13-4.23s3.85-3.9,5.05-4.07a2.27,2.27,0,0,1,1.94.64,3.8,3.8,0,0,1,1,3,8.46,8.46,0,0,1-1.84,4,2.49,2.49,0,0,1-1.44,1.16Zm.93-7.71h-.19c-.93.13-4,1.62-4.15,3.15-.13,1.08.72,2.12,2.6,3.18a1.51,1.51,0,0,0,.89.3c.28,0,.54-.39.78-.73a7.5,7.5,0,0,0,1.65-3.44A2.75,2.75,0,0,0,32.62,62,1.25,1.25,0,0,0,31.75,61.6Zm-.27-.51h0Z"/><path class="cls-1" d="M36.2,64.09c-1.21.38-4.07,2.52-4,4.32S34.05,71,35.58,71.6a1.94,1.94,0,0,0,1.29.15,2.13,2.13,0,0,0,1-1.12A8.13,8.13,0,0,0,39,66.68C38.92,65.29,37.77,63.59,36.2,64.09Z"/><path d="M36.49,72.34a3.12,3.12,0,0,1-1.09-.25c-.91-.33-3.66-1.33-3.74-3.67-.07-2.13,3-4.41,4.38-4.84a2.27,2.27,0,0,1,2,.31,3.75,3.75,0,0,1,1.47,2.76,8.56,8.56,0,0,1-1.23,4.22,2.51,2.51,0,0,1-1.24,1.37A1.63,1.63,0,0,1,36.49,72.34Zm.26-7.81a1.32,1.32,0,0,0-.39.06h0c-1,.33-3.69,2.34-3.64,3.8,0,1.09,1,2,3,2.71a1.51,1.51,0,0,0,.93.15c.26-.1.47-.48.66-.86a7.55,7.55,0,0,0,1.12-3.68,2.68,2.68,0,0,0-1-1.95A1.27,1.27,0,0,0,36.75,64.53Zm-.55-.44h0Z"/><path class="cls-1" d="M41.13,68c-.81.24-3.42,2.17-3.39,3.38s1.53,2,2.8,2.44a1.65,1.65,0,0,0,1.07.1,1.68,1.68,0,0,0,.81-.87,6,6,0,0,0,1-3.07C43.39,68.88,42.44,67.58,41.13,68Z"/><path d="M41.28,74.49a2.86,2.86,0,0,1-.91-.19c-.77-.25-3.12-1-3.16-2.92,0-1.58,2.87-3.64,3.77-3.91l.15.51L41,67.47a2.1,2.1,0,0,1,1.83.29A2.93,2.93,0,0,1,44,69.93a6.53,6.53,0,0,1-1.08,3.35,2.2,2.2,0,0,1-1.1,1.12A1.52,1.52,0,0,1,41.28,74.49Zm0-6c-.8.24-3,2-3,2.86s.82,1.42,2.44,2a1.3,1.3,0,0,0,.74.1c.2-.07.36-.35.52-.63A5.55,5.55,0,0,0,42.91,70a1.87,1.87,0,0,0-.71-1.36,1,1,0,0,0-.92-.14Z"/><path class="cls-1" d="M26.72,58.1c-1.52.2-3.7,1.58-3.86,2.79s1.22,2.25,2.41,2.87a1.75,1.75,0,0,0,1.05.28,1.73,1.73,0,0,0,.93-.74,5.94,5.94,0,0,0,1.46-2.86C28.82,59.37,28.08,57.93,26.72,58.1Z"/><path d="M26.16,64.58A2.51,2.51,0,0,1,25,64.23c-.73-.38-2.93-1.52-2.69-3.41.2-1.58,2.72-3,4.31-3.24h0a2.09,2.09,0,0,1,1.76.58,3,3,0,0,1,.83,2.34,6.5,6.5,0,0,1-1.57,3.13,2.22,2.22,0,0,1-1.26.93Zm.63-5.95c-1.42.18-3.29,1.47-3.4,2.33s.6,1.53,2.12,2.33a1.28,1.28,0,0,0,.72.22c.2,0,.41-.28.6-.53a5.45,5.45,0,0,0,1.35-2.59,1.94,1.94,0,0,0-.51-1.47,1,1,0,0,0-.88-.29Z"/><path d="M49.13,21.7a.53.53,0,0,1-.53-.53V1a.53.53,0,1,1,1,0V21.17A.52.52,0,0,1,49.13,21.7Z"/><path d="M57.85,21.48a.53.53,0,0,1-.53-.53V11.77a.53.53,0,0,1,.53-.53.53.53,0,0,1,.53.53V21A.53.53,0,0,1,57.85,21.48Z"/><path d="M40.4,21.48a.53.53,0,0,1-.53-.53V11.77a.53.53,0,0,1,1.06,0V21A.53.53,0,0,1,40.4,21.48Z"/></g></g></svg>